<svg xmlns="http://www.w3.org/2000/svg" width="32" height="32" viewBox="0 0 32 32"><g class="nc-icon-wrapper" fill="#001f38" stroke-linecap="round" stroke-linejoin="round"><line data-color="color-2" fill="none" stroke="#f03a12" stroke-width="2" x1="27" y1="15" x2="31" y2="15"></line> <line data-color="color-2" fill="none" stroke="#f03a12" stroke-width="2" x1="25.258" y1="8.5" x2="28.722" y2="6.5"></line> <line data-color="color-2" fill="none" stroke="#f03a12" stroke-width="2" x1="25.258" y1="21.5" x2="28.722" y2="23.5"></line> <path data-cap="butt" fill="none" stroke="#001f38" stroke-width="2" d="M12.147,22.018l2.651,5.941 c0.493,1.105-0.003,2.401-1.108,2.894l0,0c-1.105,0.493-2.401-0.003-2.894-1.108L5.5,18"></path> <path fill="none" stroke="#001f38" stroke-width="2" d="M21,25l-10-7H5.5 C3.015,18,1,15.985,1,13.5v0C1,11.015,3.015,9,5.5,9H11l10-7V25z"></path> <line fill="none" stroke="#001f38" stroke-width="2" x1="7" y1="9" x2="7" y2="18"></line></g></svg>